<svg version="1.0" xmlns="http://www.w3.org/2000/svg"
 width="1246.000000pt" height="293.000000pt" viewBox="0 0 1246.000000 293.000000"
 preserveAspectRatio="xMidYMid meet">

<g transform="translate(0.000000,293.000000) scale(0.100000,-0.100000)"
fill="#9299a5" stroke="none">
<path d="M1141 2904 l-31 -26 0 -199 c0 -199 0 -200 25 -224 32 -33 84 -33
122 -1 l28 24 3 182 c4 201 -2 231 -49 255 -40 21 -63 19 -98 -11z"/>
<path d="M2932 2657 c-48 -18 -102 -65 -118 -103 -19 -46 -17 -121 5 -171 24
-53 76 -83 201 -119 111 -31 146 -47 160 -73 17 -32 12 -59 -18 -92 -21 -24
-39 -32 -73 -36 -59 -7 -141 17 -200 57 l-44 30 -38 -42 -37 -43 26 -22 c76
-61 214 -100 308 -88 56 8 131 42 158 72 49 53 61 149 29 220 -24 52 -91 93
-205 124 -109 29 -154 53 -162 86 -10 39 7 76 46 96 46 24 136 16 205 -18 55
-27 64 -24 98 34 l17 30 -67 33 c-59 29 -77 33 -162 35 -58 2 -109 -2 -129
-10z"/>
<path d="M4788 2646 c-74 -30 -129 -75 -166 -134 -43 -68 -56 -117 -56 -207 0
-103 34 -184 104 -249 61 -57 111 -82 194 -97 112 -19 216 10 299 83 l38 33
-40 39 -40 39 -33 -28 c-48 -41 -89 -55 -160 -55 -140 0 -241 103 -241 245 0
139 88 231 230 243 72 5 134 -13 184 -55 l30 -26 40 39 40 39 -43 38 c-63 55
-131 77 -236 77 -68 0 -99 -6 -144 -24z"/>
<path d="M3700 2310 l0 -350 250 0 250 0 0 55 0 55 -195 0 -196 0 3 93 3 92
168 3 167 2 0 50 0 50 -167 2 -168 3 0 90 0 90 188 3 187 2 0 55 0 55 -245 0
-245 0 0 -350z"/>
<path d="M5580 2432 c0 -176 4 -240 15 -280 36 -121 136 -193 267 -195 115 -1
200 37 254 114 46 67 54 121 54 366 l0 223 -60 0 -60 0 0 -227 c0 -200 -3
-233 -19 -269 -35 -77 -118 -116 -201 -95 -53 14 -84 41 -113 96 -19 37 -22
60 -25 268 l-4 227 -54 0 -54 0 0 -228z"/>
<path d="M6610 2310 l0 -350 55 0 54 0 3 118 3 117 77 3 76 3 84 -120 83 -120
73 -1 c39 0 72 2 72 4 0 3 -38 58 -85 122 -47 65 -85 120 -85 123 0 4 19 16
43 29 68 36 91 80 96 178 2 70 0 91 -19 129 -43 89 -129 115 -377 115 l-153 0
0 -350z m375 226 c42 -18 57 -46 57 -109 0 -98 -53 -129 -216 -125 l-101 3 -3
123 -3 122 116 0 c77 0 127 -5 150 -14z"/>
<path d="M7590 2310 l0 -350 250 0 250 0 0 55 0 55 -195 0 -196 0 3 93 3 92
168 3 167 2 0 50 0 50 -167 2 -168 3 0 90 0 90 188 3 187 2 0 55 0 55 -245 0
-245 0 0 -350z"/>
<path d="M8490 2310 l0 -352 178 4 c201 6 249 17 328 77 156 118 159 420 6
538 -81 62 -137 75 -334 81 l-178 4 0 -352z m380 216 c79 -41 116 -93 126
-179 13 -112 -31 -203 -120 -249 -33 -17 -64 -22 -158 -26 l-118 -4 0 242 0
242 118 -4 c86 -3 126 -9 152 -22z"/>
<path d="M10050 2311 l0 -351 175 0 c204 0 263 10 311 52 48 42 64 78 64 138
0 73 -23 116 -81 149 l-48 27 29 18 c46 26 63 68 58 140 -5 77 -33 120 -97
149 -40 18 -70 22 -228 25 l-183 4 0 -351z m339 228 c36 -13 51 -35 51 -78 0
-74 -32 -91 -175 -91 l-105 0 0 90 0 90 99 0 c54 0 112 -5 130 -11z m57 -305
c33 -24 44 -57 32 -101 -14 -52 -47 -63 -193 -63 l-125 0 0 96 0 96 129 -4
c112 -3 133 -6 157 -24z"/>
<path d="M10890 2654 c0 -4 56 -98 125 -210 l125 -202 0 -141 0 -141 60 0 60
0 0 138 0 137 111 180 c61 99 120 195 131 213 l20 32 -64 0 -63 0 -93 -155
c-51 -85 -96 -155 -100 -155 -4 0 -49 70 -100 155 l-93 155 -60 0 c-32 0 -59
-3 -59 -6z"/>
<path d="M343 2588 c-32 -15 -57 -72 -45 -106 12 -37 276 -259 318 -267 68
-14 125 50 103 115 -7 20 -55 66 -142 138 -170 140 -181 146 -234 120z"/>
<path d="M1960 2583 c-42 -29 -254 -204 -272 -225 -28 -32 -23 -85 11 -119 49
-49 75 -42 198 58 202 162 209 171 198 230 -4 24 -16 40 -38 53 -39 24 -65 25
-97 3z"/>
<path d="M1130 2249 c-208 -22 -390 -183 -445 -396 -9 -34 -15 -102 -15 -169
l0 -112 -86 -3 c-79 -4 -88 -6 -109 -31 -13 -15 -27 -47 -30 -70 -3 -24 -5
-257 -3 -518 3 -534 1 -519 75 -539 25 -7 267 -11 688 -11 599 0 653 1 685 18
19 9 40 28 47 42 10 19 13 147 13 534 l0 508 -34 34 c-33 33 -37 34 -108 34
l-75 0 -7 123 c-10 192 -51 298 -154 402 -119 120 -267 171 -442 154z m165
-320 c93 -44 125 -109 125 -255 l0 -104 -225 0 -225 0 0 93 c0 116 12 158 58
209 70 77 176 100 267 57z m-36 -759 c43 -21 71 -70 71 -122 0 -36 -31 -95
-55 -104 -12 -5 -15 -25 -15 -90 0 -74 -2 -84 -22 -98 -31 -22 -64 -20 -88 4
-17 17 -20 33 -20 98 0 71 -3 81 -25 102 -69 64 -48 178 39 216 43 18 71 17
115 -6z"/>
<path d="M39 1871 c-38 -38 -40 -91 -4 -126 24 -25 25 -25 220 -25 195 0 196
0 220 25 38 37 35 95 -6 129 -30 26 -31 26 -216 26 l-185 0 -29 -29z"/>
<path d="M1921 1874 c-41 -34 -44 -92 -6 -129 24 -25 25 -25 223 -25 193 0
199 1 219 23 29 32 35 56 22 94 -18 56 -44 63 -248 63 -179 0 -180 0 -210 -26z"/>
<path d="M5205 1586 c-72 -33 -102 -107 -72 -178 17 -40 57 -66 106 -70 19 -1
31 -8 31 -16 0 -23 -66 -82 -99 -88 -31 -6 -31 -7 -31 -71 l0 -65 37 7 c56 10
126 50 163 91 47 54 71 115 77 197 4 62 1 78 -19 116 -13 25 -35 53 -49 64
-34 25 -105 31 -144 13z"/>
<path d="M2710 990 l0 -590 368 2 367 3 3 123 3 122 -231 0 -230 0 0 465 0
465 -140 0 -140 0 0 -590z"/>
<path d="M6520 990 l0 -590 410 0 410 0 0 120 0 120 -272 2 -273 3 -3 123 -3
122 246 0 245 0 0 115 0 115 -245 0 -245 0 0 110 0 110 260 0 260 0 0 120 0
120 -395 0 -395 0 0 -590z"/>
<path d="M4557 1443 c-4 -3 -7 -53 -7 -110 l0 -103 -65 0 -65 0 0 -100 0 -99
68 -3 67 -3 5 -230 c4 -193 8 -236 23 -270 43 -94 123 -137 257 -138 47 0 105
6 129 12 41 12 43 14 37 43 -3 17 -6 60 -6 96 l0 65 -41 -7 c-23 -4 -57 -2
-76 5 -56 18 -63 44 -63 249 l0 180 95 0 95 0 0 100 0 100 -95 0 -95 0 0 110
0 110 -128 0 c-71 0 -132 -3 -135 -7z"/>
<path d="M11990 1340 l0 -110 -65 0 -65 0 0 -100 0 -100 64 0 64 0 4 -222 c5
-251 13 -286 75 -350 50 -51 115 -71 223 -70 47 1 99 5 115 10 l30 8 3 96 3
96 -67 -2 c-60 -1 -68 1 -90 27 -24 28 -24 32 -24 218 l0 189 95 0 95 0 0 100
0 100 -95 0 -94 0 -3 108 -3 107 -132 3 -133 3 0 -111z"/>
<path d="M3825 1233 c-121 -44 -205 -118 -258 -231 -30 -64 -32 -73 -32 -187
0 -102 4 -129 23 -178 29 -70 111 -163 179 -200 137 -74 336 -77 477 -6 43 21
136 102 136 117 0 4 -41 33 -91 65 l-91 58 -35 -31 c-47 -41 -72 -50 -145 -50
-77 0 -139 28 -173 78 -51 75 -61 72 269 72 338 0 313 -8 301 98 -21 198 -93
315 -233 380 -49 23 -73 27 -167 29 -86 3 -121 -1 -160 -14z m218 -177 c18 -7
42 -24 53 -37 19 -22 44 -78 44 -100 0 -5 -79 -9 -176 -9 l-176 0 6 30 c9 46
36 77 90 105 56 28 111 32 159 11z"/>
<path d="M5579 1234 c-70 -21 -140 -73 -174 -128 -26 -43 -30 -59 -30 -120 0
-135 52 -190 227 -243 154 -46 162 -51 166 -92 9 -92 -129 -107 -247 -26 l-48
33 -77 -77 -78 -78 60 -40 c88 -59 163 -78 307 -78 111 0 125 2 183 29 67 31
125 87 148 142 20 48 17 150 -5 199 -34 76 -104 119 -265 161 -97 27 -126 45
-126 79 0 75 141 85 240 18 l35 -23 75 75 75 76 -25 19 c-37 29 -103 60 -163
76 -66 18 -218 17 -278 -2z"/>
<path d="M7950 1241 c-55 -18 -110 -52 -139 -88 l-31 -38 0 58 0 57 -130 0
-130 0 0 -415 0 -416 133 3 132 3 5 260 c4 224 7 265 23 292 49 90 178 96 224
10 16 -28 18 -67 21 -299 l3 -268 135 0 134 0 0 280 c0 168 -4 300 -11 332
-21 99 -71 168 -153 210 -45 23 -170 34 -216 19z"/>
<path d="M8740 1237 c-209 -59 -331 -234 -317 -452 11 -181 107 -312 275 -376
71 -27 213 -36 294 -20 65 14 177 66 185 87 3 8 -25 50 -63 96 -37 46 -69 84
-70 86 0 1 -24 -9 -51 -23 -148 -77 -295 12 -296 179 -1 171 161 269 297 179
l40 -26 25 30 c15 17 48 56 76 88 l50 58 -35 28 c-61 51 -132 72 -255 76 -69
1 -127 -2 -155 -10z"/>
<path d="M9671 1224 c-35 -18 -64 -42 -85 -71 l-31 -45 -3 61 -3 61 -129 0
-130 0 0 -415 0 -415 134 0 135 0 3 243 3 244 28 41 c37 57 90 82 172 82 l65
0 2 100 c1 55 2 108 2 118 1 14 -9 18 -54 20 -44 2 -66 -3 -109 -24z"/>
<path d="M11340 1241 c-47 -15 -106 -50 -139 -80 -18 -17 -35 -31 -37 -31 -2
0 -4 23 -4 50 l0 50 -125 0 -125 0 0 -610 0 -610 135 0 135 0 0 242 0 242 33
-32 c56 -54 120 -76 222 -77 82 0 96 3 157 33 144 70 228 219 228 403 0 177
-87 328 -228 395 -44 21 -75 27 -142 30 -47 2 -96 0 -110 -5z m109 -231 c79
-40 118 -119 108 -218 -12 -112 -85 -182 -191 -182 -66 0 -101 16 -143 64 -41
46 -56 96 -51 167 10 142 157 231 277 169z"/>
<path d="M9919 1163 c16 -38 92 -217 170 -400 78 -183 141 -340 141 -350 0
-33 -58 -141 -84 -159 -21 -13 -41 -16 -96 -12 -48 4 -70 2 -70 -6 -1 -6 -7
-56 -14 -111 -7 -55 -12 -102 -10 -104 2 -3 53 -7 113 -9 86 -4 121 -1 166 13
76 24 150 92 191 176 23 47 308 768 400 1012 6 16 -5 17 -137 17 l-144 0 -80
-261 c-44 -143 -82 -262 -85 -264 -3 -2 -47 114 -97 258 l-91 262 -150 3 -151
3 28 -68z"/>
</g>
</svg>
