<svg width="19" height="18" viewBox="0 0 19 18" fill="none" xmlns="http://www.w3.org/2000/svg">
<path d="M16.2 8.99999C16.2 10.7769 15.4941 12.4811 14.2376 13.7376C12.9811 14.9941 11.2769 15.7 9.49999 15.7C7.72304 15.7 6.01887 14.9941 4.76237 13.7376C3.50588 12.4811 2.79999 10.7769 2.79999 8.99999C2.79999 7.22304 3.50588 5.51887 4.76237 4.26237C6.01887 3.00588 7.72304 2.29999 9.49999 2.29999C11.2769 2.29999 12.9811 3.00588 14.2376 4.26237C15.4941 5.51887 16.2 7.22304 16.2 8.99999ZM10.4899 13.5899C10.7525 13.3274 10.9 12.9713 10.9 12.6C10.9 12.2287 10.7525 11.8726 10.4899 11.61C10.2274 11.3475 9.87129 11.2 9.49999 11.2C9.12869 11.2 8.77259 11.3475 8.51004 11.61C8.24749 11.8726 8.09999 12.2287 8.09999 12.6C8.09999 12.9713 8.24749 13.3274 8.51004 13.5899C8.77259 13.8525 9.12868 14 9.49999 14C9.87129 14 10.2274 13.8525 10.4899 13.5899ZM9.49999 3.99999C9.12868 3.99999 8.77259 4.14749 8.51004 4.41004C8.24749 4.67259 8.09999 5.02868 8.09999 5.39999V8.99999C8.09999 9.37129 8.24749 9.72739 8.51004 9.98994C8.77259 10.2525 9.12869 10.4 9.49999 10.4C9.87129 10.4 10.2274 10.2525 10.4899 9.98994C10.7525 9.72739 10.9 9.37129 10.9 8.99999V5.39999C10.9 5.02868 10.7525 4.67259 10.4899 4.41004C10.2274 4.14749 9.87129 3.99999 9.49999 3.99999Z" fill="#E02424" stroke="#E02424"/>
</svg>
